<svg width="19" height="19" viewBox="0 0 19 19" fill="none" xmlns="http://www.w3.org/2000/svg">
<path d="M9.49988 19C14.7466 19 18.9999 14.7467 18.9999 9.5C18.9999 4.25329 14.7466 0 9.49988 0C4.25317 0 -0.00012207 4.25329 -0.00012207 9.5C-0.00012207 14.7467 4.25317 19 9.49988 19Z" fill="#F16D7F"/>
<path d="M8.81189 7.648C9.25989 7.552 9.67189 7.504 10.0479 7.504C10.4959 7.504 10.8919 7.57 11.2359 7.702C11.5799 7.834 11.8659 8.016 12.0939 8.248C12.3259 8.48 12.4999 8.754 12.6159 9.07C12.7359 9.386 12.7959 9.73 12.7959 10.102C12.7959 10.558 12.7159 10.97 12.5559 11.338C12.3999 11.706 12.1819 12.022 11.9019 12.286C11.6259 12.546 11.2999 12.746 10.9239 12.886C10.5479 13.026 10.1419 13.096 9.70589 13.096C9.45389 13.096 9.21189 13.07 8.97989 13.018C8.74789 12.97 8.52989 12.904 8.32589 12.82C8.12589 12.736 7.93989 12.64 7.76789 12.532C7.59589 12.424 7.44389 12.31 7.31189 12.19L7.64189 11.734C7.71389 11.63 7.80789 11.578 7.92389 11.578C8.00389 11.578 8.09389 11.61 8.19389 11.674C8.29389 11.734 8.41589 11.802 8.55989 11.878C8.70389 11.954 8.87189 12.024 9.06389 12.088C9.25989 12.148 9.49189 12.178 9.75989 12.178C10.0599 12.178 10.3299 12.13 10.5699 12.034C10.8099 11.938 11.0159 11.802 11.1879 11.626C11.3599 11.446 11.4919 11.232 11.5839 10.984C11.6759 10.736 11.7219 10.458 11.7219 10.15C11.7219 9.882 11.6819 9.64 11.6019 9.424C11.5259 9.208 11.4079 9.024 11.2479 8.872C11.0919 8.72 10.8959 8.602 10.6599 8.518C10.4239 8.434 10.1479 8.392 9.83189 8.392C9.61589 8.392 9.38989 8.41 9.15389 8.446C8.92189 8.482 8.68389 8.54 8.43989 8.62L7.76789 8.422L8.45789 4.402H12.5319V4.87C12.5319 5.022 12.4839 5.148 12.3879 5.248C12.2959 5.344 12.1359 5.392 11.9079 5.392H9.20789L8.81189 7.648Z" fill="white"/>
</svg>
