<svg width="17" height="14" viewBox="0 0 17 14" xmlns="http://www.w3.org/2000/svg">
<path d="M15.2041 3.74052C15.2142 3.88264 15.2142 4.0248 15.2142 4.16692C15.2142 8.50192 11.9369 13.4969 5.94697 13.4969C4.10159 13.4969 2.38733 12.9588 0.945312 12.0248C1.20751 12.0552 1.45958 12.0654 1.73186 12.0654C3.25452 12.0654 4.65621 11.5476 5.77554 10.6644C4.34361 10.6339 3.14361 9.68977 2.73016 8.39027C2.93186 8.4207 3.13352 8.44102 3.34531 8.44102C3.63774 8.44102 3.93019 8.40039 4.20244 8.32936C2.71002 8.02477 1.59066 6.70498 1.59066 5.11108V5.07048C2.02426 5.31414 2.5285 5.46642 3.06291 5.4867C2.1856 4.89786 1.61084 3.8928 1.61084 2.75573C1.61084 2.14661 1.77215 1.58823 2.05452 1.10092C3.65788 3.09077 6.06797 4.39023 8.77044 4.53239C8.72004 4.28873 8.68977 4.03495 8.68977 3.78114C8.68977 1.97402 10.1419 0.501953 11.9469 0.501953C12.8847 0.501953 13.7318 0.897891 14.3267 1.53748C15.0628 1.39536 15.7687 1.12123 16.3939 0.745609C16.1519 1.50705 15.6376 2.14664 14.962 2.5527C15.6175 2.48167 16.2528 2.29889 16.8376 2.04511C16.394 2.69483 15.8394 3.27348 15.2041 3.74052Z" />
</svg>
