<svg width="27" height="24" viewBox="0 0 27 24" fill="none" xmlns="http://www.w3.org/2000/svg">
<path d="M5.49847 21.2688C5.50635 20.8582 5.64091 20.4589 5.88519 20.1211C6.12947 19.7833 6.47261 19.522 6.87158 19.3701C7.27055 19.2181 7.7076 19.1823 8.12781 19.267C8.54802 19.3517 8.93269 19.5532 9.23358 19.8463C9.53447 20.1393 9.73817 20.5108 9.81909 20.9141C9.90002 21.3175 9.85453 21.7347 9.68842 22.1134C9.52231 22.4922 9.24296 22.8156 8.88538 23.0431C8.52779 23.2705 8.10791 23.3918 7.67847 23.3919C7.38956 23.3894 7.10399 23.3325 6.83807 23.2245C6.57216 23.1164 6.3311 22.9593 6.12866 22.7622C5.92623 22.565 5.76639 22.3316 5.65826 22.0754C5.55013 21.8191 5.49584 21.5451 5.49847 21.2688ZM21.3045 23.3919C20.8711 23.3981 20.4453 23.2828 20.0797 23.0602C19.7141 22.8376 19.4247 22.5175 19.2471 22.1394C19.0696 21.7612 19.0117 21.3417 19.0806 20.9325C19.1496 20.5232 19.3423 20.1423 19.6351 19.8366C19.9278 19.5309 20.3077 19.3139 20.728 19.2124C21.1482 19.1109 21.5903 19.1293 21.9997 19.2654C22.4091 19.4014 22.7679 19.6491 23.0317 19.978C23.2956 20.3068 23.453 20.7023 23.4845 21.1157C23.5269 21.677 23.3369 22.2318 22.9555 22.6603C22.7706 22.8711 22.5436 23.0445 22.2877 23.1703C22.0319 23.2961 21.7524 23.3717 21.4655 23.3928L21.3045 23.3919ZM8.59351 16.8121C8.38116 16.8117 8.17488 16.7443 8.00671 16.6203C7.83855 16.4963 7.71792 16.3227 7.66351 16.1264L3.73651 2.31181H0.978516C0.719001 2.31181 0.470064 2.21319 0.28656 2.0377C0.103056 1.8622 0 1.62419 0 1.376C0 1.12781 0.103056 0.889795 0.28656 0.714298C0.470064 0.538802 0.719001 0.440186 0.978516 0.440186H4.45752C4.66982 0.44073 4.876 0.508261 5.04413 0.632228C5.21226 0.756195 5.33295 0.92972 5.38751 1.12593L9.31451 14.9405H20.0185L23.5765 6.98843H11.7185C11.459 6.98843 11.2101 6.88981 11.0266 6.71431C10.8431 6.53882 10.74 6.3008 10.74 6.05261C10.74 5.80442 10.8431 5.56641 11.0266 5.39091C11.2101 5.21542 11.459 5.1168 11.7185 5.1168H25.0535C25.2131 5.11723 25.3701 5.1561 25.5099 5.22981C25.6497 5.30351 25.7679 5.40972 25.8535 5.53859C25.9413 5.66933 25.9945 5.81854 26.0084 5.97334C26.0224 6.12815 25.9966 6.28384 25.9335 6.42701L21.5425 16.2507C21.469 16.4165 21.3462 16.5581 21.1895 16.6579C21.0327 16.7577 20.8488 16.8113 20.6605 16.8121H8.59351Z" fill="#EF5B70"/>
</svg>
